<svg width="20" height="24" viewBox="0 0 20 24" fill="none" xmlns="http://www.w3.org/2000/svg">
<g id="Iconly/Light-Outline/Calendar">
<g id="Calendar">
<path id="Combined-Shape" fill-rule="evenodd" clip-rule="evenodd" d="M14.0142 0.431152C14.434 0.431152 14.7747 0.795407 14.7747 1.24422L14.7752 2.16333C16.2557 2.27185 17.4854 2.81404 18.3556 3.74642C19.3057 4.76655 19.8056 6.23332 19.8006 7.99281V17.883C19.8006 21.4952 17.655 23.7392 14.2023 23.7392H5.62605C2.17343 23.7392 0.027832 21.4637 0.027832 17.8006V7.99064C0.027832 4.58354 1.94128 2.39655 5.06195 2.1637L5.06258 1.24422C5.06258 0.795407 5.40328 0.431152 5.82307 0.431152C6.24286 0.431152 6.58356 0.795407 6.58356 1.24422L6.58325 2.14293H13.2533L13.2538 1.24422C13.2538 0.795407 13.5945 0.431152 14.0142 0.431152ZM18.2796 10.0839H1.54881V17.8006C1.54881 20.5824 2.99678 22.1131 5.62605 22.1131H14.2023C16.8316 22.1131 18.2796 20.6106 18.2796 17.883L18.2796 10.0839ZM14.4276 16.9053C14.8474 16.9053 15.1881 17.2696 15.1881 17.7184C15.1881 18.1672 14.8474 18.5315 14.4276 18.5315C14.0079 18.5315 13.6631 18.1672 13.6631 17.7184C13.6631 17.2696 13.9987 16.9053 14.4185 16.9053H14.4276ZM9.92809 16.9053C10.3479 16.9053 10.6886 17.2696 10.6886 17.7184C10.6886 18.1672 10.3479 18.5315 9.92809 18.5315C9.5083 18.5315 9.16354 18.1672 9.16354 17.7184C9.16354 17.2696 9.49917 16.9053 9.91896 16.9053H9.92809ZM5.41909 16.9053C5.83888 16.9053 6.17958 17.2696 6.17958 17.7184C6.17958 18.1672 5.83888 18.5315 5.41909 18.5315C4.9993 18.5315 4.65353 18.1672 4.65353 17.7184C4.65353 17.2696 4.99018 16.9053 5.40997 16.9053H5.41909ZM14.4276 12.6918C14.8474 12.6918 15.1881 13.0561 15.1881 13.5049C15.1881 13.9537 14.8474 14.3179 14.4276 14.3179C14.0079 14.3179 13.6631 13.9537 13.6631 13.5049C13.6631 13.0561 13.9987 12.6918 14.4185 12.6918H14.4276ZM9.92809 12.6918C10.3479 12.6918 10.6886 13.0561 10.6886 13.5049C10.6886 13.9537 10.3479 14.3179 9.92809 14.3179C9.5083 14.3179 9.16354 13.9537 9.16354 13.5049C9.16354 13.0561 9.49917 12.6918 9.91896 12.6918H9.92809ZM5.41909 12.6918C5.83888 12.6918 6.17958 13.0561 6.17958 13.5049C6.17958 13.9537 5.83888 14.3179 5.41909 14.3179C4.9993 14.3179 4.65353 13.9537 4.65353 13.5049C4.65353 13.0561 4.99018 12.6918 5.40997 12.6918H5.41909ZM13.2533 3.76907H6.58325L6.58356 4.81197C6.58356 5.26078 6.24286 5.62504 5.82307 5.62504C5.40328 5.62504 5.06258 5.26078 5.06258 4.81197L5.06204 3.79368C2.79047 3.9977 1.54881 5.46986 1.54881 7.99064V8.45777H18.2796L18.2796 7.99064C18.2836 6.65178 17.947 5.61105 17.2788 4.89555C16.6922 4.26657 15.8347 3.89093 14.7756 3.7942L14.7747 4.81197C14.7747 5.26078 14.434 5.62504 14.0142 5.62504C13.5945 5.62504 13.2538 5.26078 13.2538 4.81197L13.2533 3.76907Z" fill="#181A1B"/>
</g>
</g>
</svg>
