<svg width="41" height="47" viewBox="0 0 41 47" fill="none" xmlns="http://www.w3.org/2000/svg">
<g id="Group">
<path id="Vector" d="M11.1455 18.8531C9.38721 16.6906 7.73721 16.227 6.19346 17.4604C3.87783 19.3104 3.21325 25.7604 5.07575 31.4468C6.93929 37.1333 10.5622 44.877 17.8768 44.877C25.1903 44.877 26.9205 37.0854 29.9039 32.3749C32.8883 27.6645 34.4664 23.1197 31.5424 17.4604" stroke="white" stroke-width="4" stroke-linecap="round" stroke-linejoin="round"/>
<path id="Vector_2" d="M7.45825 16.7885C6.08116 14.6845 4.69225 12.5883 3.29159 10.5C1.78534 8.2656 5.63638 5.37706 7.45825 7.34164C8.67284 8.65206 10.2864 10.5812 12.2989 13.1302" stroke="white" stroke-width="4" stroke-linecap="round"/>
<path id="Vector_3" d="M11.6498 24.7083C11.1446 18.3916 11.5561 14.2791 12.8811 12.3697C14.8706 9.50516 18.5654 8.41974 22.0446 8.41974C24.1175 8.41974 26.0092 9.30203 27.7217 11.0666" stroke="white" stroke-width="4" stroke-linecap="round" stroke-linejoin="round"/>
<path id="Vector_4" d="M38.5563 10.4231C39.1667 12.5439 38.1709 14.4825 35.1021 14.921C32.0344 15.3596 29.7344 16.9023 28.0761 18.2002C26.4167 19.4981 23.4511 23.4356 22.8646 25.4117C22.2792 27.3887 18.9313 25.571 18.0324 24.7814C17.1334 23.9919 16.249 22.2648 18.0324 20.4575C19.8157 18.6502 19.4292 18.2898 19.4292 16.4575C19.4292 14.6242 29.1813 8.56165 34.674 8.00749C35.8949 7.93665 37.9469 8.30124 38.5563 10.4231V10.4231Z" stroke="white" stroke-width="4"/>
<path id="Vector_5" d="M33.0967 9.16351C32.7613 10.3146 32.7613 11.3927 33.0967 12.4C33.4322 13.4073 34.152 14.4854 35.254 15.6364M19.9665 2.16664V7.64893V2.16664ZM17.153 9.16456C14.0092 5.21351 11.4749 3.00831 9.54883 2.54997L17.153 9.16456ZM13.7124 5.32185L14.7436 1.08539L13.7124 5.32185Z" stroke="white" stroke-width="4" stroke-linecap="round"/>
</g>
</svg>
