<svg width="26" height="25" viewBox="0 0 26 25" fill="none" xmlns="http://www.w3.org/2000/svg">
<g id="akar-icons:instagram-fill">
<path id="Vector" fill-rule="evenodd" clip-rule="evenodd" d="M8.2068 1.8299C9.40631 1.77731 9.78876 1.76562 12.8443 1.76562C15.8998 1.76562 16.2823 1.77829 17.4807 1.8299C18.6792 1.88152 19.4973 2.06364 20.2131 2.32757C20.9627 2.59734 21.6427 3.01904 22.2051 3.56442C22.7778 4.0991 23.2196 4.74577 23.5018 5.46061C23.78 6.14235 23.9702 6.92147 24.0254 8.06093C24.0806 9.20527 24.0929 9.56951 24.0929 12.4786C24.0929 15.3886 24.0796 15.7528 24.0254 16.8952C23.9712 18.0347 23.78 18.8138 23.5018 19.4955C23.2196 20.2105 22.7771 20.8582 22.2051 21.3937C21.6427 21.9391 20.9627 22.3598 20.2131 22.6286C19.4973 22.8935 18.6792 23.0746 17.4828 23.1272C16.2823 23.1798 15.8998 23.1915 12.8443 23.1915C9.78876 23.1915 9.40631 23.1788 8.2068 23.1272C7.01036 23.0756 6.19228 22.8935 5.47646 22.6286C4.7258 22.3597 4.04566 21.9383 3.48342 21.3937C2.91115 20.8587 2.4683 20.2112 2.18574 19.4965C1.90862 18.8148 1.71841 18.0356 1.66319 16.8962C1.60797 15.7518 1.5957 15.3876 1.5957 12.4786C1.5957 9.56854 1.609 9.2043 1.66319 8.06288C1.71739 6.92147 1.90862 6.14235 2.18574 5.46061C2.46872 4.74585 2.91191 4.09843 3.48444 3.56345C4.04589 3.01855 4.72534 2.5968 5.47544 2.32757C6.19126 2.06364 7.00934 1.88249 8.20578 1.8299H8.2068ZM17.3897 3.75823C16.2035 3.70661 15.8477 3.6959 12.8443 3.6959C9.84091 3.6959 9.48505 3.70661 8.29883 3.75823C7.20159 3.80595 6.60643 3.98028 6.20967 4.12734C5.68507 4.32212 5.30978 4.55294 4.91608 4.92789C4.54288 5.27367 4.25567 5.69462 4.0755 6.15988C3.92109 6.53775 3.73805 7.10456 3.68794 8.14956C3.63374 9.27929 3.62249 9.61821 3.62249 12.4786C3.62249 15.3389 3.63374 15.6778 3.68794 16.8076C3.73805 17.8526 3.92109 18.4194 4.0755 18.7972C4.25548 19.2618 4.54283 19.6835 4.91608 20.0292C5.2791 20.3847 5.72189 20.6584 6.20967 20.8298C6.60643 20.9768 7.20159 21.1512 8.29883 21.1989C9.48505 21.2505 9.83989 21.2612 12.8443 21.2612C15.8487 21.2612 16.2035 21.2505 17.3897 21.1989C18.487 21.1512 19.0821 20.9768 19.4789 20.8298C20.0035 20.635 20.3788 20.4042 20.7725 20.0292C21.1457 19.6835 21.4331 19.2618 21.6131 18.7972C21.7675 18.4194 21.9505 17.8526 22.0006 16.8076C22.0548 15.6778 22.0661 15.3389 22.0661 12.4786C22.0661 9.61821 22.0548 9.27929 22.0006 8.14956C21.9505 7.10456 21.7675 6.53775 21.6131 6.15988C21.4085 5.66026 21.1662 5.30284 20.7725 4.92789C20.4094 4.57248 19.9674 4.29895 19.4789 4.12734C19.0821 3.98028 18.487 3.80595 17.3897 3.75823ZM11.4075 15.7811C12.2099 16.0992 13.1034 16.1421 13.9353 15.9025C14.7673 15.663 15.4861 15.1557 15.9689 14.4675C16.4518 13.7793 16.6689 12.9527 16.583 12.129C16.497 11.3053 16.1135 10.5356 15.4979 9.95128C15.1055 9.57777 14.631 9.29176 14.1086 9.11387C13.5861 8.93597 13.0288 8.8706 12.4767 8.92246C11.9245 8.97433 11.3913 9.14214 10.9155 9.41381C10.4396 9.68549 10.0329 10.0543 9.72465 10.4936C9.41639 10.9329 9.21425 11.4319 9.13278 11.9546C9.05131 12.4772 9.09253 13.0106 9.25347 13.5163C9.41442 14.0219 9.69108 14.4873 10.0636 14.879C10.436 15.2706 10.895 15.5787 11.4075 15.7811ZM8.75594 8.58489C9.29283 8.07357 9.93021 7.66797 10.6317 7.39124C11.3332 7.11451 12.085 6.97209 12.8443 6.97209C13.6036 6.97209 14.3554 7.11451 15.0569 7.39124C15.7584 7.66797 16.3957 8.07357 16.9326 8.58489C17.4695 9.09622 17.8954 9.70325 18.186 10.3713C18.4765 11.0394 18.6261 11.7554 18.6261 12.4786C18.6261 13.2017 18.4765 13.9177 18.186 14.5858C17.8954 15.2539 17.4695 15.8609 16.9326 16.3722C15.8483 17.4049 14.3777 17.985 12.8443 17.985C11.3109 17.985 9.84023 17.4049 8.75594 16.3722C7.67164 15.3396 7.06249 13.939 7.06249 12.4786C7.06249 11.0182 7.67164 9.61756 8.75594 8.58489ZM19.9084 7.79214C20.0414 7.67261 20.1479 7.52887 20.2216 7.36944C20.2953 7.21 20.3346 7.03811 20.3373 6.86394C20.34 6.68977 20.3059 6.51686 20.2371 6.35544C20.1684 6.19403 20.0663 6.0474 19.937 5.92423C19.8077 5.80106 19.6537 5.70385 19.4842 5.63837C19.3147 5.57288 19.1332 5.54045 18.9503 5.54299C18.7674 5.54553 18.5869 5.58299 18.4195 5.65315C18.2521 5.72331 18.1012 5.82475 17.9757 5.95146C17.7316 6.19789 17.598 6.52521 17.6032 6.86394C17.6083 7.20267 17.7519 7.52614 18.0035 7.76569C18.255 8.00523 18.5946 8.14199 18.9503 8.14693C19.306 8.15187 19.6496 8.0246 19.9084 7.79214Z" fill="white"/>
</g>
</svg>
