<svg width="25" height="25" viewBox="0 0 25 25" fill="none" xmlns="http://www.w3.org/2000/svg">
<g id="akar-icons:linkedin-v2-fill">
<path id="Vector" fill-rule="evenodd" clip-rule="evenodd" d="M9.63399 9.52541H13.4319V11.3271C13.979 10.2909 15.382 9.35985 17.4896 9.35985C21.5299 9.35985 22.4891 11.4226 22.4891 15.2072V22.2163H18.3987V16.0691C18.3987 13.9138 17.8516 12.6984 16.4588 12.6984C14.5271 12.6984 13.7244 14.0083 13.7244 16.0681V22.2163H9.63399V9.52541ZM2.61999 22.0508H6.71038V9.35985H2.61999V22.0508ZM7.29633 5.22173C7.29648 5.54826 7.22849 5.87156 7.0963 6.17283C6.96411 6.47411 6.77036 6.74737 6.52631 6.97671C6.03179 7.44479 5.3624 7.7068 4.66519 7.70519C3.9692 7.70474 3.30136 7.4434 2.8061 6.97768C2.56294 6.74756 2.36985 6.474 2.23789 6.17268C2.10593 5.87137 2.0377 5.54821 2.03711 5.22173C2.03711 4.5624 2.31321 3.93131 2.80713 3.46579C3.30195 2.99944 3.97007 2.73799 4.66621 2.73828C5.36362 2.73828 6.0324 3.00026 6.52631 3.46579C7.01921 3.93131 7.29633 4.5624 7.29633 5.22173Z" fill="white"/>
</g>
</svg>
