<svg width="152" height="47" viewBox="0 0 152 47" fill="none" xmlns="http://www.w3.org/2000/svg">
<path d="M85.56 17.432H74.168V22.808H83.16V26.36H74.168V35H69.752V13.88H85.56V17.432ZM93.9288 18.68C95.5501 18.68 96.9688 19.0107 98.1848 19.672C99.4221 20.3333 100.382 21.2827 101.065 22.52C101.769 23.7573 102.121 25.2507 102.121 27C102.121 28.728 101.769 30.2213 101.065 31.48C100.382 32.7173 99.4221 33.6667 98.1848 34.328C96.9688 34.9893 95.5501 35.32 93.9288 35.32C92.3288 35.32 90.9101 34.9893 89.6728 34.328C88.4354 33.6667 87.4648 32.7173 86.7608 31.48C86.0781 30.2213 85.7368 28.728 85.7368 27C85.7368 25.2507 86.0781 23.7573 86.7608 22.52C87.4648 21.2827 88.4354 20.3333 89.6728 19.672C90.9101 19.0107 92.3288 18.68 93.9288 18.68ZM93.9288 21.944C93.1181 21.944 92.4248 22.136 91.8488 22.52C91.2941 22.8827 90.8674 23.4373 90.5688 24.184C90.2701 24.9307 90.1208 25.8693 90.1208 27C90.1208 28.1307 90.2701 29.0693 90.5688 29.816C90.8674 30.5627 91.2941 31.128 91.8488 31.512C92.4248 31.8747 93.1181 32.056 93.9288 32.056C94.7181 32.056 95.3901 31.8747 95.9448 31.512C96.5208 31.128 96.9581 30.5627 97.2568 29.816C97.5554 29.0693 97.7048 28.1307 97.7048 27C97.7048 25.8693 97.5554 24.9307 97.2568 24.184C96.9581 23.4373 96.5208 22.8827 95.9448 22.52C95.3901 22.136 94.7181 21.944 93.9288 21.944ZM119.776 15.192L120.288 18.328C120.203 18.328 120.107 18.328 120 18.328C119.915 18.3067 119.819 18.296 119.712 18.296C118.731 18.296 117.995 18.52 117.504 18.968C117.013 19.3947 116.768 19.992 116.768 20.76L114.976 20.024C114.976 19.1707 115.147 18.3813 115.488 17.656C115.829 16.9093 116.331 16.312 116.992 15.864C117.675 15.416 118.485 15.192 119.424 15.192C119.467 15.192 119.52 15.192 119.584 15.192C119.648 15.192 119.712 15.192 119.776 15.192ZM114.528 31.992C116.256 31.992 117.589 32.3653 118.528 33.112C119.467 33.8587 119.936 34.904 119.936 36.248C119.936 37.464 119.584 38.488 118.88 39.32C118.176 40.1733 117.184 40.8133 115.904 41.24C114.645 41.6667 113.184 41.88 111.52 41.88C108.768 41.88 106.752 41.496 105.472 40.728C104.213 39.96 103.584 38.9573 103.584 37.72C103.584 36.8453 103.915 36.1093 104.576 35.512C105.259 34.9147 106.379 34.584 107.936 34.52L107.776 35.032C106.667 34.84 105.813 34.4773 105.216 33.944C104.64 33.3893 104.352 32.632 104.352 31.672C104.352 30.6907 104.725 29.8907 105.472 29.272C106.24 28.632 107.275 28.2587 108.576 28.152L110.496 29.048H110.048C109.131 29.112 108.48 29.304 108.096 29.624C107.733 29.9227 107.552 30.264 107.552 30.648C107.552 31.096 107.723 31.4373 108.064 31.672C108.427 31.8853 108.939 31.992 109.6 31.992H114.528ZM111.552 38.872C112.661 38.872 113.568 38.776 114.272 38.584C114.997 38.392 115.531 38.1467 115.872 37.848C116.235 37.5493 116.416 37.2187 116.416 36.856C116.416 36.4507 116.256 36.12 115.936 35.864C115.616 35.6293 115.04 35.512 114.208 35.512H108.8C108.288 35.512 107.861 35.64 107.52 35.896C107.2 36.152 107.04 36.504 107.04 36.952C107.04 37.5493 107.435 38.0187 108.224 38.36C109.035 38.7013 110.144 38.872 111.552 38.872ZM111.584 18.68C113.077 18.68 114.368 18.904 115.456 19.352C116.565 19.7787 117.408 20.3973 117.984 21.208C118.581 22.0187 118.88 22.9893 118.88 24.12C118.88 25.2293 118.581 26.1893 117.984 27C117.408 27.8107 116.565 28.44 115.456 28.888C114.368 29.3147 113.077 29.528 111.584 29.528C109.216 29.528 107.403 29.048 106.144 28.088C104.907 27.1067 104.288 25.784 104.288 24.12C104.288 22.9893 104.576 22.0187 105.152 21.208C105.749 20.3973 106.592 19.7787 107.68 19.352C108.768 18.904 110.069 18.68 111.584 18.68ZM111.584 21.432C110.731 21.432 110.027 21.6667 109.472 22.136C108.917 22.6053 108.64 23.256 108.64 24.088C108.64 24.92 108.917 25.5813 109.472 26.072C110.027 26.5413 110.731 26.776 111.584 26.776C112.437 26.776 113.131 26.5413 113.664 26.072C114.219 25.5813 114.496 24.92 114.496 24.088C114.496 23.256 114.219 22.6053 113.664 22.136C113.131 21.6667 112.437 21.432 111.584 21.432ZM127.611 14.104V29.784C127.611 30.552 127.803 31.1173 128.187 31.48C128.592 31.8213 129.136 31.992 129.819 31.992C130.352 31.992 130.821 31.9173 131.227 31.768C131.632 31.5973 131.995 31.3733 132.315 31.096L133.019 34.008C132.507 34.4133 131.867 34.7333 131.099 34.968C130.331 35.2027 129.52 35.32 128.667 35.32C127.6 35.32 126.651 35.16 125.819 34.84C125.008 34.52 124.368 34.008 123.899 33.304C123.451 32.6 123.227 31.6613 123.227 30.488V15.32L127.611 14.104ZM132.731 19V22.264H120.283V19H132.731ZM144.333 24.792C144.333 23.8747 144.066 23.16 143.533 22.648C143.021 22.136 142.338 21.88 141.485 21.88C140.695 21.88 140.002 22.0827 139.405 22.488C138.807 22.8933 138.37 23.5653 138.093 24.504L134.349 23.352C134.711 21.944 135.501 20.8133 136.717 19.96C137.954 19.1067 139.607 18.68 141.677 18.68C143.085 18.68 144.311 18.904 145.357 19.352C146.402 19.7787 147.213 20.4293 147.789 21.304C148.386 22.1787 148.685 23.2773 148.685 24.6V31.096C148.685 31.9067 149.069 32.312 149.837 32.312C150.199 32.312 150.541 32.2587 150.861 32.152L150.605 34.872C150.05 35.1493 149.357 35.288 148.525 35.288C147.778 35.288 147.106 35.16 146.509 34.904C145.911 34.648 145.442 34.264 145.101 33.752C144.759 33.2187 144.589 32.5573 144.589 31.768V31.64L145.357 31.512C145.229 32.3227 144.877 33.016 144.301 33.592C143.725 34.1467 143.021 34.5733 142.189 34.872C141.378 35.1707 140.535 35.32 139.661 35.32C138.573 35.32 137.634 35.16 136.845 34.84C136.055 34.4987 135.447 34.008 135.021 33.368C134.594 32.728 134.381 31.9387 134.381 31C134.381 29.8053 134.765 28.8347 135.533 28.088C136.301 27.32 137.399 26.7973 138.829 26.52L144.845 25.304L144.813 28.024L140.973 28.792C140.247 28.9413 139.693 29.144 139.309 29.4C138.946 29.6347 138.765 30.0293 138.765 30.584C138.765 31.1173 138.957 31.5227 139.341 31.8C139.746 32.0773 140.226 32.216 140.781 32.216C141.229 32.216 141.666 32.1627 142.093 32.056C142.519 31.9493 142.903 31.7787 143.245 31.544C143.586 31.3093 143.853 30.9893 144.045 30.584C144.237 30.1787 144.333 29.688 144.333 29.112V24.792Z" fill="#0076D1"/>
<path d="M0.692194 13.4811C0.692194 9.60017 2.63034 6.39331 6.50663 3.8605C10.3829 1.28683 15.5052 0 21.8733 0C25.242 0 28.2646 0.306388 30.9411 0.919165C33.6176 1.49109 35.7403 2.22642 37.3093 3.12516C38.8783 4.0239 40.1934 5.06562 41.2548 6.25032C43.0083 8.29292 43.862 10.5806 43.8159 13.1134C43.8159 15.6054 42.7084 17.8318 40.4934 19.7927C38.2783 21.7536 35.6019 22.7749 32.4639 22.8566C36.3863 23.1017 39.7781 24.2455 42.6392 26.2881C45.5464 28.3307 47 30.9044 47 34.0091C47 38.0943 45.2234 41.2807 41.6701 43.5684C38.1168 45.8561 33.7791 47 28.6568 47C23.5808 47 20.1198 46.4076 18.2739 45.2229L20.4197 40.0756C22.4502 41.0152 24.8036 41.485 27.4801 41.485C30.2027 41.485 32.4178 40.7905 34.1252 39.4016C35.8326 37.9717 36.6863 36.0926 36.6863 33.764C36.6863 31.4355 35.5096 29.4746 33.1561 27.8814C30.8488 26.2881 27.6878 25.4915 23.673 25.4915L24.296 20.957C27.0648 20.957 29.3952 20.385 31.2872 19.2412C33.2253 18.0565 34.2175 16.2999 34.2636 13.9713C34.3559 11.6428 33.1792 9.68188 30.7334 8.08866C28.1031 6.41373 24.5037 5.57627 19.9352 5.57627C16.9357 5.57627 14.0054 6.27075 11.1443 7.65971C8.28326 9.00782 6.85272 10.8257 6.85272 13.1134C6.85272 14.2164 7.36033 15.156 8.37555 15.9322C9.39077 16.6675 10.729 17.1169 12.3903 17.2803L11.6289 21.8149C8.12175 21.6923 5.42219 20.814 3.53019 19.1799C1.63819 17.5458 0.692194 15.6462 0.692194 13.4811ZM20.489 34.867C19.7506 39.2382 18.3201 42.3429 16.1973 44.1812C14.0746 45.9787 11.5827 46.8774 8.72165 46.8774C5.86058 46.8774 3.6917 46.2238 2.21502 44.9166C0.738341 43.6093 0 41.9344 0 39.8918C0 35.0713 4.13009 30.9657 12.3903 27.575C12.621 25.8592 12.944 23.5511 13.3593 20.6506C13.8208 17.7093 14.1669 15.3399 14.3976 13.5424C14.6745 11.7449 14.8591 10.5602 14.9514 9.98826C16.8434 8.92612 19.0353 8.39505 21.5272 8.39505C22.6809 8.39505 23.7884 8.49718 24.8498 8.70143L20.489 34.867ZM5.12224 39.0952C5.12224 40.5658 5.90672 41.3012 7.4757 41.3012C8.12175 41.3012 8.79087 40.9335 9.48306 40.1982C10.2214 39.422 10.729 38.2169 11.0059 36.5828L11.6289 32.7836C7.29111 34.9487 5.12224 37.0526 5.12224 39.0952Z" fill="url(#paint0_linear_184_231)"/>
<defs>
<linearGradient id="paint0_linear_184_231" x1="-1.60024" y1="-15.4096" x2="-1.60024" y2="52.0746" gradientUnits="userSpaceOnUse">
<stop offset="0.109375" stop-color="#76FEF2"/>
<stop offset="0.380208" stop-color="#5EE2EB"/>
<stop offset="0.630208" stop-color="#3FBFE3"/>
<stop offset="0.833333" stop-color="#1790D7"/>
<stop offset="1" stop-color="#0076D1"/>
</linearGradient>
</defs>
</svg>
