<svg width="26" height="25" viewBox="0 0 26 25" fill="none" xmlns="http://www.w3.org/2000/svg">
<g id="bx:phone">
<path id="Vector" d="M19.0964 12.6038C18.9985 12.5104 18.8821 12.4362 18.7541 12.3857C18.626 12.3351 18.4887 12.3091 18.3501 12.3091C18.2115 12.3091 18.0742 12.3351 17.9461 12.3857C17.8181 12.4362 17.7018 12.5104 17.6038 12.6038L15.9212 14.2063C15.1411 13.9851 13.6855 13.4825 12.7629 12.6038C11.8403 11.7252 11.3125 10.3388 11.0803 9.5959L12.7629 7.99342C12.861 7.90014 12.9388 7.78935 12.9919 7.66739C13.0451 7.54543 13.0724 7.41469 13.0724 7.28266C13.0724 7.15063 13.0451 7.01989 12.9919 6.89793C12.9388 6.77597 12.861 6.66518 12.7629 6.5719L8.54055 2.55062C8.44261 2.45718 8.32628 2.38305 8.19822 2.33247C8.07016 2.28189 7.93289 2.25586 7.79425 2.25586C7.65562 2.25586 7.51835 2.28189 7.39029 2.33247C7.26223 2.38305 7.1459 2.45718 7.04796 2.55062L4.18521 5.27705C3.78409 5.65907 3.55819 6.18384 3.56663 6.71968C3.59091 8.15125 3.98887 13.1236 8.10354 17.0423C12.2182 20.961 17.4391 21.339 18.9433 21.3632H18.9729C19.5302 21.3632 20.057 21.154 20.456 20.774L23.3187 18.0476C23.4169 17.9543 23.4947 17.8435 23.5478 17.7216C23.6009 17.5996 23.6282 17.4689 23.6282 17.3369C23.6282 17.2048 23.6009 17.0741 23.5478 16.9521C23.4947 16.8302 23.4169 16.7194 23.3187 16.6261L19.0964 12.6038ZM18.9623 19.3515C17.645 19.3304 13.1376 18.9936 9.59614 15.6198C6.04304 12.2359 5.69892 7.92807 5.6778 6.69857L7.79425 4.6829L10.524 7.28266L9.15913 8.58254C9.03505 8.70061 8.94383 8.84627 8.8937 9.00635C8.84357 9.16642 8.83611 9.33588 8.87201 9.49939C8.89734 9.615 9.51697 12.3565 11.2692 14.0253C13.0215 15.6942 15.9001 16.2843 16.0215 16.3084C16.1931 16.3436 16.3712 16.337 16.5394 16.2894C16.7076 16.2418 16.8606 16.1546 16.9842 16.036L18.3501 14.7361L21.0798 17.3358L18.9623 19.3515Z" fill="white"/>
</g>
</svg>
