<svg width="25" height="25" viewBox="0 0 25 25" fill="none" xmlns="http://www.w3.org/2000/svg">
<g id="bxs:quote-alt-left">
<path id="Vector" d="M6.66112 10.4276C6.43693 10.4276 6.22179 10.4617 6.00766 10.4929C6.07702 10.2598 6.1484 10.0226 6.26301 9.8096C6.37762 9.50011 6.55656 9.23182 6.7345 8.96152C6.88329 8.66911 7.14568 8.47116 7.3387 8.22096C7.54077 7.97779 7.81623 7.81601 8.03438 7.61404C8.24851 7.40302 8.529 7.29751 8.75218 7.1488C8.98541 7.01516 9.18849 6.86744 9.40564 6.79711L9.9475 6.57403L10.424 6.37608L9.93645 4.42871L9.33627 4.57341C9.14425 4.62164 8.91001 4.67791 8.6436 4.74523C8.37116 4.79548 8.08063 4.93314 7.75691 5.05874C7.43722 5.20143 7.06726 5.29789 6.72344 5.527C6.37761 5.74605 5.9785 5.92893 5.62664 6.22234C5.28584 6.5248 4.87466 6.78706 4.57106 7.17191C4.2393 7.53164 3.91157 7.90946 3.65722 8.33953C3.36266 8.7495 3.1626 9.19967 2.95149 9.64481C2.76048 10.0899 2.60666 10.5451 2.481 10.9873C2.24274 11.8735 2.13617 12.7156 2.09496 13.436C2.06077 14.1575 2.08088 14.7574 2.1231 15.1915C2.13818 15.3965 2.16633 15.5954 2.18644 15.7331L2.21157 15.9019L2.23771 15.8959C2.41652 16.7307 2.82814 17.4979 3.42496 18.1087C4.02177 18.7195 4.7794 19.1489 5.61019 19.3473C6.44099 19.5457 7.311 19.5049 8.11959 19.2298C8.92817 18.9546 9.64229 18.4562 10.1793 17.7923C10.7164 17.1284 11.0544 16.3261 11.1543 15.4782C11.2542 14.6303 11.1119 13.7714 10.7438 13.001C10.3758 12.2305 9.79704 11.58 9.07454 11.1246C8.35203 10.6692 7.51529 10.4275 6.66112 10.4276ZM17.7196 10.4276C17.4954 10.4276 17.2803 10.4617 17.0662 10.4929C17.1355 10.2598 17.2069 10.0226 17.3215 9.8096C17.4361 9.50011 17.6151 9.23182 17.793 8.96152C17.9418 8.66911 18.2042 8.47116 18.3972 8.22096C18.5993 7.97779 18.8747 7.81601 19.0929 7.61404C19.307 7.40302 19.5875 7.29751 19.8107 7.1488C20.0439 7.01516 20.247 6.86744 20.4641 6.79711L21.006 6.57403L21.4825 6.37608L20.995 4.42871L20.3948 4.57341C20.2028 4.62164 19.9685 4.67791 19.7021 4.74523C19.4297 4.79548 19.1391 4.93314 18.8154 5.05874C18.4967 5.20243 18.1258 5.29789 17.782 5.528C17.4361 5.74705 17.037 5.92993 16.6852 6.22335C16.3443 6.5258 15.9332 6.78806 15.6296 7.17191C15.2978 7.53164 14.9701 7.90946 14.7157 8.33953C14.4212 8.7495 14.2211 9.19967 14.01 9.64481C13.819 10.0899 13.6652 10.5451 13.5395 10.9873C13.3012 11.8735 13.1947 12.7156 13.1535 13.436C13.1193 14.1575 13.1394 14.7574 13.1816 15.1915C13.1967 15.3965 13.2248 15.5954 13.2449 15.7331L13.2701 15.9019L13.2962 15.8959C13.475 16.7307 13.8866 17.4979 14.4835 18.1087C15.0803 18.7195 15.8379 19.1489 16.6687 19.3473C17.4995 19.5457 18.3695 19.5049 19.1781 19.2298C19.9867 18.9546 20.7008 18.4562 21.2378 17.7923C21.7749 17.1284 22.1129 16.3261 22.2128 15.4782C22.3127 14.6303 22.1704 13.7714 21.8024 13.001C21.4343 12.2305 20.8556 11.58 20.133 11.1246C19.4105 10.6692 18.5738 10.4275 17.7196 10.4276Z" fill="#181A1B"/>
</g>
</svg>
