<svg width="26" height="25" viewBox="0 0 26 25" fill="none" xmlns="http://www.w3.org/2000/svg">
<g id="akar-icons:twitter-fill">
<path id="Vector" d="M24.9593 5.59917C24.1055 5.95952 23.1882 6.203 22.2239 6.31305C23.2189 5.74603 23.9633 4.85362 24.3182 3.80232C23.3834 4.33114 22.3603 4.70337 21.2933 4.90283C20.5759 4.17325 19.6255 3.68967 18.5899 3.52717C17.5543 3.36467 16.4913 3.53235 15.566 4.00417C14.6407 4.47599 13.9048 5.22555 13.4727 6.13648C13.0405 7.04741 12.9362 8.06875 13.1759 9.04192C11.2818 8.95134 9.42877 8.48246 7.73718 7.6657C6.0456 6.84895 4.55324 5.70257 3.35696 4.30096C2.94792 4.97296 2.71273 5.75208 2.71273 6.58184C2.71227 7.32882 2.90542 8.06436 3.27503 8.72319C3.64464 9.38203 4.1793 9.94379 4.83155 10.3586C4.07511 10.3357 3.33536 10.1411 2.67387 9.79085V9.84929C2.67379 10.897 3.05431 11.9124 3.75085 12.7233C4.44739 13.5342 5.41706 14.0906 6.49532 14.2981C5.79359 14.4789 5.05789 14.5056 4.34377 14.376C4.64799 15.2774 5.24058 16.0657 6.03859 16.6305C6.8366 17.1953 7.80007 17.5082 8.79412 17.5256C7.10666 18.7872 5.02266 19.4715 2.87736 19.4685C2.49735 19.4686 2.11765 19.4475 1.74023 19.4052C3.91783 20.7387 6.45271 21.4463 9.04158 21.4436C17.8053 21.4436 22.5961 14.5308 22.5961 8.53549C22.5961 8.34071 22.591 8.14398 22.5818 7.9492C23.5137 7.30738 24.3181 6.51259 24.9573 5.6021L24.9593 5.59917Z" fill="white"/>
</g>
</svg>
