<svg width="20" height="20" viewBox="0 0 20 20" fill="none" xmlns="http://www.w3.org/2000/svg">
<g id="vuesax/outline/user">
<g id="user">
<path id="Vector" d="M9.99967 10.6243C7.35801 10.6243 5.20801 8.47435 5.20801 5.83268C5.20801 3.19102 7.35801 1.04102 9.99967 1.04102C12.6413 1.04102 14.7913 3.19102 14.7913 5.83268C14.7913 8.47435 12.6413 10.6243 9.99967 10.6243ZM9.99967 2.29102C8.04967 2.29102 6.45801 3.88268 6.45801 5.83268C6.45801 7.78268 8.04967 9.37435 9.99967 9.37435C11.9497 9.37435 13.5413 7.78268 13.5413 5.83268C13.5413 3.88268 11.9497 2.29102 9.99967 2.29102Z" fill="#181A1B"/>
<path id="Vector_2" d="M17.1585 18.9583C16.8168 18.9583 16.5335 18.675 16.5335 18.3333C16.5335 15.4583 13.6001 13.125 10.0001 13.125C6.40013 13.125 3.4668 15.4583 3.4668 18.3333C3.4668 18.675 3.18346 18.9583 2.8418 18.9583C2.50013 18.9583 2.2168 18.675 2.2168 18.3333C2.2168 14.775 5.70846 11.875 10.0001 11.875C14.2918 11.875 17.7835 14.775 17.7835 18.3333C17.7835 18.675 17.5001 18.9583 17.1585 18.9583Z" fill="#181A1B"/>
</g>
</g>
</svg>
