<svg width="26" height="25" viewBox="0 0 26 25" fill="none" xmlns="http://www.w3.org/2000/svg">
<g id="mdi:web">
<path id="Vector" d="M17.6738 14.1381C17.7583 13.4745 17.8216 12.811 17.8216 12.1274C17.8216 11.4438 17.7583 10.7803 17.6738 10.1168H21.2417C21.4106 10.7602 21.5162 11.4337 21.5162 12.1274C21.5162 12.8211 21.4106 13.4946 21.2417 14.1381H17.6738ZM15.8054 19.7276C16.4388 18.6117 16.9244 17.4053 17.2621 16.1487H20.3761C19.3534 17.8258 17.731 19.0963 15.8054 19.7276ZM15.5415 14.1381H10.6014C10.4958 13.4745 10.4325 12.811 10.4325 12.1274C10.4325 11.4438 10.4958 10.7702 10.6014 10.1168H15.5415C15.6365 10.7702 15.7104 11.4438 15.7104 12.1274C15.7104 12.811 15.6365 13.4745 15.5415 14.1381ZM13.0715 20.1298C12.1953 18.9234 11.4881 17.5863 11.0553 16.1487H15.0876C14.6549 17.5863 13.9476 18.9234 13.0715 20.1298ZM8.84914 8.10613H5.76683C6.77898 6.42445 8.4003 5.15199 10.327 4.5272C9.6936 5.6431 9.21859 6.84948 8.84914 8.10613ZM5.76683 16.1487H8.84914C9.21859 17.4053 9.6936 18.6117 10.327 19.7276C8.40434 19.0959 6.7853 17.8253 5.76683 16.1487ZM4.90125 14.1381C4.73235 13.4946 4.6268 12.8211 4.6268 12.1274C4.6268 11.4337 4.73235 10.7602 4.90125 10.1168H8.46913C8.38468 10.7803 8.32134 11.4438 8.32134 12.1274C8.32134 12.811 8.38468 13.4745 8.46913 14.1381H4.90125ZM13.0715 4.11502C13.9476 5.3214 14.6549 6.66853 15.0876 8.10613H11.0553C11.4881 6.66853 12.1953 5.3214 13.0715 4.11502ZM20.3761 8.10613H17.2621C16.9318 6.861 16.4426 5.65908 15.8054 4.5272C17.7477 5.16055 19.3628 6.4373 20.3761 8.10613ZM13.0715 2.07422C7.23409 2.07422 2.51562 6.59816 2.51562 12.1274C2.51562 14.7937 3.62776 17.3508 5.60736 19.2361C6.58756 20.1696 7.75123 20.9101 9.03193 21.4153C10.3126 21.9206 11.6853 22.1806 13.0715 22.1806C15.8711 22.1806 18.556 21.1214 20.5356 19.2361C22.5152 17.3508 23.6273 14.7937 23.6273 12.1274C23.6273 10.8072 23.3543 9.49993 22.8238 8.28022C22.2933 7.06051 21.5158 5.95226 20.5356 5.01873C19.5554 4.08521 18.3917 3.34469 17.111 2.83947C15.8303 2.33425 14.4577 2.07422 13.0715 2.07422Z" fill="white"/>
</g>
</svg>
